<svg xmlns="http://www.w3.org/2000/svg" xmlns:xlink="http://www.w3.org/1999/xlink" version="1.1" id="Capa_1" x="0px" y="0px" fill="white"  width="28px" height="25px" viewBox="0 0 76 76" style="background:#292b2c;" xml:space="preserve">
<g id="_x37_7_Essential_Icons_45_">
	<path id="Photo" d="M76,61.78v-47.8c0-1.1-0.9-2-2-2H2c-1.1,0-2,0.9-2,2v48c0,2.5,3.3,2,2,2h72l0,0C77,63.98,75.6,59.38,76,61.78z    M6,59.98l22-28.7l18.4,24.1l0,0l3.5,4.6H6z M55,59.98l-4.5-5.8l7.5-9.8l11.9,15.6H55z M72,55.98l-12.4-16.2   c-0.8-1.1-2.4-1.1-3.2,0l-8.4,11l-18.4-24c-0.8-1.1-2.4-1.1-3.2,0L4,56.08v-40.1h68V55.98z M49,21.98c-3.9,0-7,3.1-7,7s3.1,7,7,7   s7-3.1,7-7S52.8,21.98,49,21.98z M49,31.98c-1.6,0-3-1.3-3-3s1.3-3,3-3s3,1.3,3,3S50.6,31.98,49,31.98z"/>
</g>
<g>
</g>
<g>
</g>
<g>
</g>
<g>
</g>
<g>
</g>
<g>
</g>
<g>
</g>
<g>
</g>
<g>
</g>
<g>
</g>
<g>
</g>
<g>
</g>
<g>
</g>
<g>
</g>
<g>
</g>
</svg>